<svg width="280" height="280" viewBox="0 0 280 280" fill="none" xmlns="http://www.w3.org/2000/svg">
<path d="M0 8.96C0 4.01153 4.01153 0 8.96 0H150.471C155.419 0 159.431 4.01153 159.431 8.96V150.471C159.431 155.419 155.419 159.431 150.471 159.431H8.96001C4.01153 159.431 0 155.419 0 150.471V8.96Z" fill="#EB5243"/>
<path d="M182.349 129.529C182.349 124.581 186.36 120.569 191.309 120.569H271.04C275.988 120.569 280 124.581 280 129.529V271.04C280 275.988 275.988 280 271.04 280H191.309C186.36 280 182.349 275.988 182.349 271.04V129.529Z" fill="#EB5243"/>
<path d="M0 191.309C0 186.36 4.01153 182.349 8.96 182.349H150.471C155.419 182.349 159.431 186.36 159.431 191.309V271.04C159.431 275.988 155.419 280 150.471 280H8.96001C4.01153 280 0 275.988 0 271.04V191.309Z" fill="#EB5243"/>
<path d="M182.349 8.95999C182.349 4.01152 186.36 0 191.309 0H271.04C275.988 0 280 4.01153 280 8.96V88.6913C280 93.6397 275.988 97.6513 271.04 97.6513H191.309C186.36 97.6513 182.349 93.6397 182.349 88.6913V8.95999Z" fill="#EB5243"/>
</svg>
